<svg width="256" height="219" viewBox="0 0 256 219" fill="none" xmlns="http://www.w3.org/2000/svg">
<path d="M0 18.25C0 8.15547 8.17143 0 18.2857 0H237.714C247.829 0 256 8.15547 256 18.25C256 28.3445 247.829 36.5 237.714 36.5H18.2857C8.17143 36.5 0 28.3445 0 18.25ZM0 109.5C0 99.4055 8.17143 91.25 18.2857 91.25H237.714C247.829 91.25 256 99.4055 256 109.5C256 119.595 247.829 127.75 237.714 127.75H18.2857C8.17143 127.75 0 119.595 0 109.5ZM256 200.75C256 210.845 247.829 219 237.714 219H18.2857C8.17143 219 0 210.845 0 200.75C0 190.655 8.17143 182.5 18.2857 182.5H237.714C247.829 182.5 256 190.655 256 200.75Z" fill="#DFE9F9"/>
</svg>
