<svg width="800" height="800" viewBox="0 0 800 800" fill="none" xmlns="http://www.w3.org/2000/svg">
<g clip-path="url(#clip0_30_382)">
<path d="M399.999 337C412.299 337.001 424.324 340.64 434.56 347.461C444.795 354.281 452.784 363.977 457.521 375.328C462.258 386.679 463.531 399.178 461.179 411.251C458.828 423.324 452.957 434.431 444.306 443.175C435.655 451.918 424.611 457.907 412.563 460.387C400.516 462.866 388.005 461.727 376.604 457.111C365.203 452.495 355.422 444.61 348.494 434.447C341.565 424.284 337.798 412.299 337.666 400C337.622 391.77 339.2 383.613 342.308 375.993C345.417 368.373 349.996 361.44 355.785 355.59C361.573 349.74 368.457 345.087 376.043 341.898C383.629 338.708 391.77 337.044 399.999 337ZM245.666 666.667C266.666 679.333 312.333 660 365.666 610C347.84 589.743 331.042 568.606 315.333 546.667C288.447 543.656 261.742 539.205 235.333 533.333C218.333 604.667 224.666 653.667 245.666 666.667ZM269.333 475.333L259.666 458.333C255.898 467.696 252.67 477.267 249.999 487C258.999 489 268.999 490.667 279.333 492.333L269.333 475.333ZM487.333 450L514.333 400L487.333 350C477.333 332.333 466.666 316.667 456.999 301C438.999 300 419.999 300 399.999 300C379.999 300 360.999 300 342.999 300C333.333 315.667 322.666 331.333 312.666 349L285.666 400L312.666 450C322.666 467.667 333.333 483.333 342.999 499C360.999 499 379.999 499 399.999 499C419.999 499 438.999 499 456.999 499C466.666 483.333 477.333 467.667 487.333 450ZM399.999 226C393.666 233.333 386.999 241 380.333 250H419.666C412.999 241 406.333 233.333 399.999 226ZM399.999 574C406.333 566.667 412.999 559 419.666 550H380.333C386.999 559 393.666 566.667 399.999 574ZM553.999 133.333C533.333 120.667 487.333 140 434.333 190C452.158 210.257 468.957 231.394 484.666 253.333C511.528 255.904 538.232 259.91 564.666 265.333C581.666 194 575.333 145 553.999 132M530.666 323.333L540.333 340.333C544.101 330.971 547.328 321.399 549.999 311.667C540.999 309.667 530.999 308 520.666 306.333L530.666 323.333ZM578.999 90C627.999 118 633.333 191.667 612.333 277.667C696.999 302.667 757.999 344.333 757.999 400.333C757.999 456.333 696.999 498 612.333 523C632.999 609 627.666 682.667 578.999 710.667C530.333 738.667 463.999 706.667 399.999 645.667C335.999 706.667 269.666 738.667 220.666 710.667C171.666 682.667 166.666 610.667 187.333 523C102.666 498 41.666 456.333 41.666 400.333C41.666 344.333 102.666 302.333 187.333 277.333C166.666 191.333 171.999 117.667 220.666 89.6667C269.333 61.6667 335.999 93.6667 399.999 154.667C463.999 93.6667 530.333 61.6667 578.999 89.6667M569.333 400C580.909 424.538 591.147 449.686 599.999 475.333C669.999 454.333 709.333 424.333 709.333 400C709.333 375.667 668.999 345.667 599.999 324.667C591.147 350.314 580.909 375.462 569.333 400ZM230.666 400C219.089 375.462 208.852 350.314 199.999 324.667C129.999 345.667 90.666 375.667 90.666 400C90.666 424.333 130.999 454.333 199.999 475.333C208.852 449.686 219.089 424.538 230.666 400ZM530.666 475.333L520.666 492.333C530.999 492.333 540.999 489 549.999 487C547.328 477.267 544.101 467.696 540.333 458.333L530.666 475.333ZM433.333 610C486.333 660 533.333 679.333 552.999 666.667C572.666 654 580.666 606 563.666 533.333C537.232 538.757 510.528 542.763 483.666 545.333C467.994 567.727 451.194 589.31 433.333 610ZM269.333 324.667L279.333 307.667C268.999 307.667 258.999 311 249.999 313C252.67 322.733 255.898 332.304 259.666 341.667L269.333 324.667ZM366.666 190C312.666 140 266.666 120.667 245.666 133.333C224.666 146 218.333 194 235.333 266.667C261.766 261.243 288.471 257.237 315.333 254.667C331.33 232.25 348.463 210.666 366.666 190Z" fill="#DFE9F9"/>
</g>
<defs>
<clipPath id="clip0_30_382">
<rect width="800" height="800" fill="white"/>
</clipPath>
</defs>
</svg>
