<svg width="800" height="800" viewBox="0 0 800 800" fill="none" xmlns="http://www.w3.org/2000/svg">
<path d="M515.151 499.525C514.651 499.5 514.076 499.5 513.501 499.5C485.351 499.5 462.126 520.7 458.951 548L458.926 548.25C458.926 548.3 458.926 548.375 458.926 548.45C458.926 549.475 459.776 550.325 460.801 550.325H569.901C570.926 550.325 571.776 549.475 571.776 548.45C571.776 548.375 571.776 548.325 571.776 548.25C569.551 520.8 546.726 499.375 518.901 499.375C517.601 499.375 516.301 499.425 515.001 499.525H515.151ZM630.251 585.375C630.251 588.7 627.576 591.375 624.251 591.375H461.726C460.701 591.375 459.851 592.225 459.851 593.25C459.851 593.325 459.851 593.375 459.851 593.45C465.126 622.8 490.476 644.8 520.976 644.8C522.626 644.8 524.251 644.725 525.876 644.6L525.651 644.625C546.801 644.05 566.226 637.1 582.201 625.675L581.901 625.875C582.901 625.075 584.201 624.6 585.601 624.6C587.626 624.6 589.426 625.625 590.526 627.15L610.401 656.225C611.051 657.175 611.426 658.375 611.426 659.625C611.426 661.575 610.526 663.325 609.101 664.45C585.151 682.05 555.076 692.625 522.526 692.625C521.201 692.625 519.876 692.6 518.551 692.575H518.751C516.826 692.7 514.551 692.75 512.276 692.75C447.976 692.75 395.876 640.625 395.876 576.35C395.876 574.7 395.901 573.075 395.976 571.45V571.675C395.951 570.65 395.926 569.475 395.926 568.275C395.926 503.675 448.301 451.3 512.901 451.3C513.651 451.3 514.376 451.3 515.126 451.325H515.026C515.176 451.325 515.376 451.325 515.551 451.325C579.126 451.325 630.676 502.875 630.676 566.45C630.676 570.475 630.476 574.425 630.076 578.35L630.126 577.85L630.251 585.375ZM241.676 692.6C239.301 692.725 236.526 692.775 233.726 692.775C188.101 692.775 146.501 675.65 114.976 647.45L115.151 647.6C114.126 646.4 113.501 644.825 113.501 643.1C113.501 641.375 114.126 639.8 115.176 638.6L142.726 599.975C144.001 598.2 146.051 597.05 148.376 597.05C150.176 597.05 151.801 597.725 153.026 598.85C177.126 621.275 209.576 635.025 245.201 635.025C245.351 635.025 245.501 635.025 245.651 635.025H245.626C281.801 635.025 299.426 618.35 299.426 600.725C299.426 546 121.351 583.475 121.351 467.075C121.351 415.525 165.951 373.35 238.701 373.35C240.551 373.275 242.726 373.25 244.901 373.25C286.601 373.25 324.901 387.925 354.851 412.4L354.551 412.15C355.676 413.375 356.376 415.025 356.376 416.825C356.376 418.625 355.676 420.275 354.551 421.525L326.251 459.025C324.976 460.675 322.976 461.75 320.751 461.75C319.051 461.75 317.526 461.15 316.301 460.15C293.601 441.925 264.451 430.9 232.726 430.9C232.376 430.9 232.051 430.9 231.701 430.9H231.751C203.451 430.9 187.701 443.45 187.701 462.025C187.701 511.125 365.401 478.325 365.401 593.225C365.576 649.825 325.276 692.575 241.676 692.575V692.6ZM749.076 133.45L517.401 393.45C516.101 394.8 514.276 395.65 512.251 395.65C510.226 395.65 508.401 394.8 507.101 393.45L388.826 271.6C387.876 270.4 387.301 268.875 387.301 267.2C387.301 265.525 387.876 264 388.826 262.775L427.251 212.55C428.551 210.8 430.626 209.675 432.976 209.675C435.326 209.675 437.376 210.8 438.676 212.525L438.701 212.55L504.501 285.85C505.801 287.325 507.726 288.25 509.851 288.25C511.976 288.25 513.876 287.325 515.176 285.85L700.751 32.975C701.276 32.175 701.601 31.2 701.601 30.15C701.601 27.45 699.476 25.25 696.826 25.1H47.4758C44.4758 25.1 42.0508 27.525 42.0508 30.525V769.425C42.0508 772.425 44.4758 774.85 47.4758 774.85H752.451C755.451 774.85 757.876 772.425 757.876 769.425V137.55C757.926 137.3 757.951 137.025 757.951 136.75C757.951 133.95 755.676 131.7 752.901 131.7C751.376 131.7 750.026 132.375 749.101 133.425L749.076 133.45Z" fill="#DFE9F9"/>
</svg>
