<svg width="800" height="800" viewBox="0 0 800 800" fill="none" xmlns="http://www.w3.org/2000/svg">
<path d="M680.069 611.234C731.327 546.891 762.129 465.247 762.105 376.675C762.129 272.791 719.872 178.347 651.78 110.325C583.739 42.2203 489.296 -0.0249889 385.418 1.10898e-05C281.533 -0.0249889 187.097 42.2203 119.063 110.325C50.9629 178.347 8.7129 272.791 8.73634 376.675C8.7129 480.547 50.9629 574.991 119.063 643.025C187.097 711.13 281.535 753.375 385.419 753.35C465.025 753.375 539.032 728.491 599.921 686.256L713.682 800L791.264 722.417L680.069 611.234ZM591.419 582.681C538.566 635.452 466.002 667.98 385.418 668.003C304.833 667.98 232.269 635.452 179.41 582.681C126.622 529.816 94.1051 457.258 94.0817 376.675C94.1051 296.091 126.622 223.533 179.41 170.669C232.269 117.888 304.833 85.3703 385.418 85.3469C466.002 85.3703 538.564 117.888 591.419 170.669C644.218 223.533 676.735 296.092 676.758 376.675C676.735 457.259 644.218 529.816 591.419 582.681Z" fill="#DFE9F9"/>
<path d="M243.635 367.352L234.735 366.114C211.988 362.898 203.825 354.994 203.825 343.372C203.825 330.264 213.219 320.869 230.282 320.869C244.372 320.869 256.982 325.073 270.585 333.978C271.818 334.717 273.057 334.467 274.044 333.228L285.914 314.941C286.904 313.452 286.653 312.464 285.414 311.475C272.068 301.344 252.041 294.662 231.025 294.662C196.407 294.662 174.154 314.939 174.154 345.35C174.154 373.283 192.453 388.869 224.841 393.309L233.741 394.547C256.983 397.762 264.4 405.68 264.4 417.789C264.4 431.886 252.78 442.019 232.752 442.019C213.964 442.019 197.889 432.875 187.013 424.219C186.025 423.231 184.543 423.231 183.554 424.469L168.224 442.269C167.236 443.506 167.73 444.983 168.718 445.984C181.821 458.342 205.8 468.225 230.532 468.225C272.311 468.225 293.827 445.984 293.827 416.062C293.827 387.128 276.019 371.806 243.635 367.352Z" fill="#DFE9F9"/>
<path d="M430.573 297.378H325.248C323.765 297.378 322.777 298.366 322.777 299.855V463.034C322.777 464.524 323.765 465.511 325.248 465.511H430.573C432.062 465.511 433.049 464.524 433.049 463.034V441.781C433.049 440.294 432.062 439.305 430.573 439.305H353.435L351.952 437.816V395.297L353.435 393.809H418.457C419.946 393.809 420.935 392.82 420.935 391.331V370.067C420.935 368.591 419.946 367.603 418.457 367.603H353.435L351.952 366.114V325.073L353.435 323.597H430.573C432.062 323.597 433.049 322.597 433.049 321.12V299.855C433.049 298.366 432.062 297.378 430.573 297.378Z" fill="#DFE9F9"/>
<path d="M522.576 294.662C493.648 294.662 471.89 308.511 463.24 335.216C459.775 345.598 458.787 354.994 458.787 381.448C458.787 407.905 459.775 417.298 463.24 427.681C471.89 454.387 493.65 468.223 522.576 468.223C551.759 468.223 573.5 454.387 582.168 427.681C585.622 417.298 586.622 407.905 586.622 381.448C586.622 354.992 585.622 345.598 582.168 335.216C573.5 308.511 551.757 294.662 522.576 294.662ZM553.973 420.016C549.281 433.612 539.4 442.019 522.575 442.019C506.012 442.019 496.118 433.612 491.422 420.016C489.445 413.836 488.456 405.18 488.456 381.45C488.456 357.458 489.445 349.053 491.422 342.872C496.12 329.275 506.014 320.869 522.575 320.869C539.4 320.869 549.281 329.275 553.973 342.872C555.95 349.052 556.948 357.458 556.948 381.45C556.95 405.18 555.95 413.834 553.973 420.016Z" fill="#DFE9F9"/>
</svg>
