<svg width="800" height="800" viewBox="0 0 800 800" fill="none" xmlns="http://www.w3.org/2000/svg">
<g clip-path="url(#clip0_30_378)">
<path d="M400.033 160C293.367 160 226.7 213.333 200.033 320C240.033 266.667 286.7 246.667 340.033 260C370.467 267.6 392.2 289.667 416.3 314.133C455.533 353.933 500.9 400 600.033 400C706.7 400 773.367 346.667 800.033 240C760.033 293.333 713.367 313.333 660.033 300C629.6 292.4 607.867 270.333 583.767 245.867C544.567 206.067 499.2 160 400.033 160ZM200.033 400C93.3665 400 26.6999 453.333 0.0332031 560C40.0332 506.667 86.6999 486.667 140.033 500C170.467 507.6 192.2 529.667 216.3 554.133C255.533 593.933 300.9 640 400.033 640C506.7 640 573.367 586.667 600.033 480C560.033 533.333 513.366 553.333 460.033 540C429.6 532.4 407.866 510.333 383.766 485.867C344.566 446.067 299.2 400 200.033 400Z" fill="#DFE9F9"/>
</g>
<defs>
<clipPath id="clip0_30_378">
<rect width="800" height="800" fill="white"/>
</clipPath>
</defs>
</svg>
