<svg width="49" height="48" viewBox="0 0 49 48" fill="none" xmlns="http://www.w3.org/2000/svg">
<mask id="path-1-inside-1_13_129" fill="white">
<path d="M36.2667 12.0825C33.1242 8.93245 28.9392 7.19995 24.4917 7.19995C15.3117 7.19995 7.84172 14.67 7.84172 23.85C7.84172 26.7824 8.60672 29.6474 10.0617 32.1749L7.69922 40.7999L16.5267 38.4824C18.9567 39.8099 21.6942 40.5074 24.4842 40.5074H24.4917C33.6642 40.5074 41.2992 33.0375 41.2992 23.8575C41.2992 19.41 39.4092 15.2325 36.2667 12.0825ZM24.4917 37.7025C22.0017 37.7025 19.5642 37.0349 17.4417 35.7749L16.9392 35.4749L11.7042 36.8474L13.0992 31.74L12.7692 31.215C11.3817 29.01 10.6542 26.4675 10.6542 23.85C10.6542 16.2225 16.8642 10.0125 24.4992 10.0125C28.1967 10.0125 31.6692 11.4525 34.2792 14.07C36.8892 16.6875 38.4942 20.16 38.4867 23.8575C38.4867 31.4925 32.1192 37.7025 24.4917 37.7025ZM32.0817 27.3374C31.6692 27.1274 29.6217 26.1225 29.2392 25.9875C28.8567 25.845 28.5792 25.7774 28.3017 26.1974C28.0242 26.6174 27.2292 27.5475 26.9817 27.8325C26.7417 28.11 26.4942 28.1474 26.0817 27.9374C23.6367 26.715 22.0317 25.755 20.4192 22.9875C19.9917 22.2525 20.8467 22.305 21.6417 20.715C21.7767 20.4375 21.7092 20.1975 21.6042 19.9875C21.4992 19.7775 20.6667 17.73 20.3217 16.8975C19.9842 16.0875 19.6392 16.2 19.3842 16.185C19.1442 16.17 18.8667 16.17 18.5892 16.17C18.3117 16.17 17.8617 16.275 17.4792 16.6875C17.0967 17.1075 16.0242 18.1124 16.0242 20.1599C16.0242 22.2074 17.5167 24.1875 17.7192 24.465C17.9292 24.7425 20.6517 28.9424 24.8292 30.7499C27.4692 31.8899 28.5042 31.9874 29.8242 31.7924C30.6267 31.6724 32.2842 30.7874 32.6292 29.8124C32.9742 28.8374 32.9742 28.005 32.8692 27.8325C32.7717 27.645 32.4942 27.5399 32.0817 27.3374Z"/>
</mask>
<path d="M36.2667 12.0825C33.1242 8.93245 28.9392 7.19995 24.4917 7.19995C15.3117 7.19995 7.84172 14.67 7.84172 23.85C7.84172 26.7824 8.60672 29.6474 10.0617 32.1749L7.69922 40.7999L16.5267 38.4824C18.9567 39.8099 21.6942 40.5074 24.4842 40.5074H24.4917C33.6642 40.5074 41.2992 33.0375 41.2992 23.8575C41.2992 19.41 39.4092 15.2325 36.2667 12.0825ZM24.4917 37.7025C22.0017 37.7025 19.5642 37.0349 17.4417 35.7749L16.9392 35.4749L11.7042 36.8474L13.0992 31.74L12.7692 31.215C11.3817 29.01 10.6542 26.4675 10.6542 23.85C10.6542 16.2225 16.8642 10.0125 24.4992 10.0125C28.1967 10.0125 31.6692 11.4525 34.2792 14.07C36.8892 16.6875 38.4942 20.16 38.4867 23.8575C38.4867 31.4925 32.1192 37.7025 24.4917 37.7025ZM32.0817 27.3374C31.6692 27.1274 29.6217 26.1225 29.2392 25.9875C28.8567 25.845 28.5792 25.7774 28.3017 26.1974C28.0242 26.6174 27.2292 27.5475 26.9817 27.8325C26.7417 28.11 26.4942 28.1474 26.0817 27.9374C23.6367 26.715 22.0317 25.755 20.4192 22.9875C19.9917 22.2525 20.8467 22.305 21.6417 20.715C21.7767 20.4375 21.7092 20.1975 21.6042 19.9875C21.4992 19.7775 20.6667 17.73 20.3217 16.8975C19.9842 16.0875 19.6392 16.2 19.3842 16.185C19.1442 16.17 18.8667 16.17 18.5892 16.17C18.3117 16.17 17.8617 16.275 17.4792 16.6875C17.0967 17.1075 16.0242 18.1124 16.0242 20.1599C16.0242 22.2074 17.5167 24.1875 17.7192 24.465C17.9292 24.7425 20.6517 28.9424 24.8292 30.7499C27.4692 31.8899 28.5042 31.9874 29.8242 31.7924C30.6267 31.6724 32.2842 30.7874 32.6292 29.8124C32.9742 28.8374 32.9742 28.005 32.8692 27.8325C32.7717 27.645 32.4942 27.5399 32.0817 27.3374Z" fill="#DFE9F9"/>
<path d="M10.0617 32.1749L19.7064 34.8168L20.8074 30.7975L18.7283 27.1859L10.0617 32.1749ZM7.69922 40.7999L-1.94551 38.1581L-6.52389 54.8728L10.2385 50.4722L7.69922 40.7999ZM16.5267 38.4824L21.3209 29.7066L17.8324 27.8008L13.9874 28.8102L16.5267 38.4824ZM17.4417 35.7749L12.3156 44.3612L12.3263 44.3676L12.337 44.3739L17.4417 35.7749ZM16.9392 35.4749L22.0653 26.8887L18.4623 24.7377L14.4032 25.8019L16.9392 35.4749ZM11.7042 36.8474L2.05756 34.2127L-2.50301 50.9102L14.2403 46.5205L11.7042 36.8474ZM13.0992 31.74L22.7459 34.3747L23.9032 30.1372L21.5656 26.4182L13.0992 31.74ZM12.7692 31.215L21.2356 25.8932L21.233 25.8891L12.7692 31.215ZM38.4867 23.8575L28.4867 23.8372L28.4867 23.8473V23.8575H38.4867ZM32.0817 27.3374L27.5449 36.2491L27.6097 36.2821L27.675 36.3141L32.0817 27.3374ZM29.2392 25.9875L25.7481 35.3583L25.8293 35.3885L25.911 35.4174L29.2392 25.9875ZM26.9817 27.8325L19.4314 21.2756L19.4247 21.2833L19.4181 21.2909L26.9817 27.8325ZM26.0817 27.9374L30.6185 19.0258L30.5863 19.0094L30.5539 18.9932L26.0817 27.9374ZM20.4192 22.9875L11.775 28.0152L11.7789 28.0218L20.4192 22.9875ZM21.6417 20.715L30.586 25.1871L30.6103 25.1385L30.6341 25.0896L21.6417 20.715ZM20.3217 16.8975L29.5599 13.069L29.5562 13.0602L29.5525 13.0513L20.3217 16.8975ZM19.3842 16.185L18.7604 26.1655L18.7787 26.1666L18.797 26.1677L19.3842 16.185ZM17.4792 16.6875L10.1465 9.88806L10.116 9.92097L10.0858 9.95415L17.4792 16.6875ZM17.7192 24.465L9.64131 30.3596L9.69262 30.43L9.74515 30.4994L17.7192 24.465ZM24.8292 30.7499L20.8582 39.9277L20.8649 39.9306L24.8292 30.7499ZM29.8242 31.7924L31.2856 41.6851L31.2944 41.6838L31.3031 41.6825L29.8242 31.7924ZM32.8692 27.8325L23.997 32.446L24.1523 32.7445L24.3272 33.0319L32.8692 27.8325ZM36.2667 12.0825L43.3462 5.01982C38.3239 -0.0145243 31.5901 -2.80005 24.4917 -2.80005V7.19995V17.2C26.2883 17.2 27.9246 17.8794 29.1872 19.1451L36.2667 12.0825ZM24.4917 7.19995V-2.80005C9.78887 -2.80005 -2.15828 9.1471 -2.15828 23.85H7.84172H17.8417C17.8417 20.1928 20.8346 17.2 24.4917 17.2V7.19995ZM7.84172 23.85H-2.15828C-2.15828 28.5269 -0.936786 33.1132 1.39516 37.164L10.0617 32.1749L18.7283 27.1859C18.1502 26.1817 17.8417 25.038 17.8417 23.85H7.84172ZM10.0617 32.1749L0.416989 29.5331L-1.94551 38.1581L7.69922 40.7999L17.3439 43.4418L19.7064 34.8168L10.0617 32.1749ZM7.69922 40.7999L10.2385 50.4722L19.066 48.1547L16.5267 38.4824L13.9874 28.8102L5.15995 31.1277L7.69922 40.7999ZM16.5267 38.4824L11.7325 47.2583C15.6416 49.3938 20.0289 50.5074 24.4842 50.5074V40.5074V30.5074C23.3595 30.5074 22.2718 30.2261 21.3209 29.7066L16.5267 38.4824ZM24.4842 40.5074V50.5074H24.4917V40.5074V30.5074H24.4842V40.5074ZM24.4917 40.5074V50.5074C39.0614 50.5074 51.2992 38.6851 51.2992 23.8575H41.2992H31.2992C31.2992 27.3898 28.267 30.5074 24.4917 30.5074V40.5074ZM41.2992 23.8575H51.2992C51.2992 16.5173 48.1787 9.86389 43.3462 5.01982L36.2667 12.0825L29.1872 19.1451C30.6397 20.601 31.2992 22.3026 31.2992 23.8575H41.2992ZM24.4917 37.7025V27.7025C23.7861 27.7025 23.1137 27.5127 22.5464 27.176L17.4417 35.7749L12.337 44.3739C16.0148 46.5572 20.2173 47.7025 24.4917 47.7025V37.7025ZM17.4417 35.7749L22.5678 27.1887L22.0653 26.8887L16.9392 35.4749L11.8131 44.0612L12.3156 44.3612L17.4417 35.7749ZM16.9392 35.4749L14.4032 25.8019L9.16816 27.1744L11.7042 36.8474L14.2403 46.5205L19.4753 45.148L16.9392 35.4749ZM11.7042 36.8474L21.3509 39.4822L22.7459 34.3747L13.0992 31.74L3.45256 29.1052L2.05756 34.2127L11.7042 36.8474ZM13.0992 31.74L21.5656 26.4182L21.2356 25.8932L12.7692 31.215L4.30285 36.5367L4.63285 37.0617L13.0992 31.74ZM12.7692 31.215L21.233 25.8891C20.8597 25.2959 20.6542 24.6027 20.6542 23.85H10.6542H0.654218C0.654218 28.3322 1.90374 32.724 4.30545 36.5408L12.7692 31.215ZM10.6542 23.85H20.6542C20.6542 21.7488 22.3835 20.0125 24.4992 20.0125V10.0125V0.012451C11.3449 0.012451 0.654218 10.6961 0.654218 23.85H10.6542ZM24.4992 10.0125V20.0125C25.5424 20.0125 26.4662 20.3969 27.198 21.1309L34.2792 14.07L41.3604 7.00904C36.8723 2.50799 30.8511 0.012451 24.4992 0.012451V10.0125ZM34.2792 14.07L27.198 21.1309C28.1657 22.1013 28.4882 23.1051 28.4867 23.8372L38.4867 23.8575L48.4867 23.8777C48.5002 17.2148 45.6127 11.2736 41.3604 7.00904L34.2792 14.07ZM38.4867 23.8575H28.4867C28.4867 25.8267 26.7404 27.7025 24.4917 27.7025V37.7025V47.7025C37.4981 47.7025 48.4867 37.1582 48.4867 23.8575H38.4867ZM32.0817 27.3374L36.6185 18.4258C36.3175 18.2725 35.6275 17.9326 34.9882 17.6247C34.6767 17.4747 33.418 16.8578 32.5674 16.5575L29.2392 25.9875L25.911 35.4174C25.7099 35.3464 25.5669 35.2877 25.531 35.273C25.5024 35.2612 25.4814 35.2524 25.4698 35.2474C25.4579 35.2423 25.4511 35.2394 25.4503 35.239C25.4497 35.2388 25.4618 35.2441 25.489 35.2564C25.5154 35.2683 25.5501 35.2841 25.5935 35.3042C25.7761 35.3885 26.0267 35.5074 26.3102 35.6439C26.5878 35.7776 26.8695 35.915 27.1045 36.0306C27.2216 36.0882 27.3235 36.1386 27.4043 36.1788C27.4447 36.1988 27.4778 36.2153 27.5035 36.2282C27.5162 36.2346 27.5262 36.2397 27.5337 36.2434C27.5414 36.2473 27.5449 36.2491 27.5449 36.2491L32.0817 27.3374ZM29.2392 25.9875L32.7303 16.6166C32.5806 16.5608 31.9958 16.3399 31.2615 16.1671C30.4937 15.9864 29.1794 15.7604 27.5663 15.9496C23.5878 16.4162 21.1458 18.8877 19.9584 20.6849L28.3017 26.1974L36.6451 31.71C36.246 32.314 35.5115 33.2601 34.3073 34.1165C33.0046 35.0431 31.4836 35.6272 29.8959 35.8134C28.4346 35.9848 27.2788 35.7762 26.6792 35.6351C26.3663 35.5614 26.1245 35.4863 25.9859 35.4409C25.8486 35.3959 25.7543 35.3606 25.7481 35.3583L29.2392 25.9875ZM28.3017 26.1974L19.9584 20.6849C20.0498 20.5464 20.1145 20.4588 20.1257 20.4435C20.1432 20.4198 20.1448 20.4184 20.125 20.4438C20.0836 20.4969 20.0131 20.5849 19.9151 20.7038C19.7192 20.9413 19.5164 21.1777 19.4314 21.2756L26.9817 27.8325L34.532 34.3893C34.6086 34.3011 35.9213 32.8054 36.6451 31.71L28.3017 26.1974ZM26.9817 27.8325L19.4181 21.2909C20.2721 20.3035 22.2225 18.5341 25.364 18.144C28.1236 17.8013 30.1091 18.7665 30.6185 19.0258L26.0817 27.9374L21.5449 36.8491C22.4668 37.3184 24.7823 38.3699 27.8288 37.9915C31.2572 37.5658 33.4514 35.6389 34.5453 34.374L26.9817 27.8325ZM26.0817 27.9374L30.5539 18.9932C29.9937 18.7131 29.6781 18.5448 29.4572 18.415C29.2608 18.2997 29.2195 18.2606 29.2475 18.2834C29.2605 18.2939 29.279 18.3101 29.2981 18.329C29.3171 18.3477 29.3252 18.3577 29.3212 18.3529C29.3144 18.3448 29.2249 18.2369 29.0596 17.9531L20.4192 22.9875L11.7789 28.0218C13.101 30.2909 14.6555 32.1954 16.629 33.8003C18.4587 35.2882 20.3345 36.2442 21.6096 36.8817L26.0817 27.9374ZM20.4192 22.9875L29.0634 17.9597C29.3331 18.4234 29.8009 19.3249 30.0789 20.5774C30.3851 21.9571 30.4044 23.5127 29.9885 25.0922C29.6008 26.5646 28.9523 27.6054 28.5587 28.159C28.3583 28.4409 28.1833 28.6526 28.0771 28.7766C27.9711 28.9003 27.8915 28.9855 27.8736 29.0047C27.7146 29.1745 28.349 28.524 28.8449 27.9081C29.4407 27.1679 30.0421 26.2749 30.586 25.1871L21.6417 20.715L12.6974 16.2428C13.0503 15.5372 13.6684 14.9138 13.2705 15.339C13.1472 15.4708 12.7091 15.9363 12.2583 16.5703C11.7784 17.2454 11.0679 18.4039 10.6477 19.9996C9.66481 23.7324 11.0047 26.6908 11.775 28.0152L20.4192 22.9875ZM21.6417 20.715L30.6341 25.0896C32.7264 20.7886 31.2916 17.0016 30.5485 15.5153L21.6042 19.9875L12.6599 24.4596C12.4428 24.0253 11.9372 22.9332 11.7713 21.4048C11.5874 19.7099 11.8697 17.943 12.6494 16.3403L21.6417 20.715ZM21.6042 19.9875L30.5485 15.5153C30.6059 15.6301 30.6472 15.7187 30.664 15.7549C30.6844 15.7989 30.6991 15.8315 30.7059 15.8468C30.7191 15.8763 30.724 15.8879 30.7168 15.8712C30.703 15.8393 30.6756 15.7748 30.6318 15.6703C30.5459 15.4651 30.4308 15.1867 30.3 14.8691C30.0539 14.2713 29.7361 13.4944 29.5599 13.069L20.3217 16.8975L11.0836 20.7259C11.2523 21.133 11.5232 21.7961 11.8059 22.4827C11.9395 22.8073 12.0737 23.1321 12.1842 23.396C12.2387 23.5259 12.2962 23.6623 12.3495 23.7859C12.3757 23.8468 12.4096 23.9248 12.4467 24.0078C12.4682 24.0559 12.551 24.2417 12.6599 24.4596L21.6042 19.9875ZM20.3217 16.8975L29.5525 13.0513C28.937 11.574 27.4426 8.76799 24.0596 7.18531C22.4497 6.43217 21.0098 6.25371 20.164 6.20514C19.7924 6.18381 19.4779 6.18665 19.4669 6.18666C19.3511 6.18686 19.6416 6.1828 19.9714 6.20221L19.3842 16.185L18.797 26.1677C19.0221 26.1809 19.2057 26.1845 19.3141 26.1858C19.3702 26.1865 19.4168 26.1866 19.4463 26.1867C19.4729 26.1867 19.4994 26.1866 19.5009 26.1866C19.5588 26.1865 19.3157 26.1894 19.0176 26.1723C18.3188 26.1321 17.034 25.979 15.5845 25.3008C12.5221 23.8682 11.369 21.4109 11.0909 20.7436L20.3217 16.8975ZM19.3842 16.185L20.008 6.20443C19.3943 6.16607 18.7816 6.16995 18.5892 6.16995V16.17V26.17C18.6615 26.17 18.7138 26.17 18.7627 26.1701C18.81 26.1703 18.8407 26.1706 18.8609 26.1708C18.8812 26.1711 18.8822 26.1713 18.8689 26.1709C18.8561 26.1704 18.8179 26.1691 18.7604 26.1655L19.3842 16.185ZM18.5892 16.17V6.16995C16.0093 6.16995 12.7252 7.10716 10.1465 9.88806L17.4792 16.6875L24.8119 23.4868C22.9983 25.4427 20.6142 26.17 18.5892 26.17V16.17ZM17.4792 16.6875L10.0858 9.95415C10.1919 9.83759 8.89841 11.1288 7.89994 12.8976C6.81003 14.8284 6.02422 17.2715 6.02422 20.1599H16.0242H26.0242C26.0242 21.0009 25.7747 21.9177 25.3166 22.7292C24.95 23.3786 24.384 23.9573 24.8726 23.4207L17.4792 16.6875ZM16.0242 20.1599H6.02422C6.02422 23.4354 7.15737 26.08 7.8772 27.4993C8.28121 28.296 8.68635 28.9588 9.00814 29.4492C9.17163 29.6984 9.31811 29.9098 9.43693 30.077C9.54556 30.2299 9.66004 30.3853 9.64131 30.3596L17.7192 24.465L25.7971 18.5703C25.7237 18.4696 25.7396 18.492 25.7298 18.4771C25.7147 18.4542 25.7088 18.4421 25.7144 18.4531C25.7156 18.4554 25.7741 18.5675 25.8404 18.7891C25.9043 19.0025 26.0242 19.4788 26.0242 20.1599H16.0242ZM17.7192 24.465L9.74515 30.4994C9.45098 30.1106 10.7817 32.0503 12.492 33.8742C14.2053 35.7012 17.0231 38.2683 20.8582 39.9277L24.8292 30.7499L28.8002 21.5722C28.4579 21.4241 27.8256 20.9875 27.0808 20.1932C26.7539 19.8446 26.4865 19.514 26.2957 19.2627C26.2026 19.1401 26.129 19.0381 26.0729 18.9589C26.0423 18.9157 26.0187 18.8819 25.9815 18.8288C25.9671 18.8082 25.9367 18.7647 25.9053 18.7205C25.8883 18.6964 25.8017 18.5738 25.6933 18.4305L17.7192 24.465ZM24.8292 30.7499L20.8649 39.9306C22.4288 40.6059 24.1367 41.2523 25.9641 41.5978C28.0806 41.9979 29.8298 41.9002 31.2856 41.6851L29.8242 31.7924L28.3628 21.8998C28.3415 21.903 28.5371 21.8726 28.8437 21.8721C28.995 21.8719 29.1494 21.8789 29.3019 21.8934C29.4532 21.9077 29.5808 21.9272 29.6794 21.9459C29.8698 21.9819 29.9166 22.0079 29.7599 21.9545C29.5973 21.8992 29.2959 21.7862 28.7936 21.5693L24.8292 30.7499ZM29.8242 31.7924L31.3031 41.6825C33.5744 41.3429 35.5356 40.3504 36.8009 39.5381C37.8276 38.8789 40.7335 36.8869 42.0564 33.1482L32.6292 29.8124L23.202 26.4767C23.7635 24.8897 24.6178 23.9254 24.9989 23.5346C25.4336 23.0888 25.8023 22.8322 25.9957 22.7081C26.2055 22.5734 26.4232 22.4578 26.6759 22.3516C26.848 22.2792 27.4358 22.0384 28.3453 21.9024L29.8242 31.7924ZM32.6292 29.8124L42.0564 33.1482C42.5158 31.8499 42.7802 30.5622 42.8818 29.3718C42.9316 28.7876 42.9558 28.071 42.8929 27.2824C42.8746 27.0531 42.7672 24.8607 41.4112 22.633L32.8692 27.8325L24.3272 33.0319C23.5318 31.7251 23.2473 30.5623 23.1527 30.147C23.0268 29.5938 22.978 29.1456 22.9562 28.8726C22.912 28.319 22.9343 27.9038 22.9542 27.6713C22.9958 27.1839 23.0876 26.8 23.202 26.4767L32.6292 29.8124ZM32.8692 27.8325L41.7414 23.2189C40.2811 20.4108 37.976 19.1451 37.502 18.8781C37.1392 18.6737 36.8189 18.5196 36.7084 18.4663C36.4963 18.364 36.5638 18.3977 36.4884 18.3608L32.0817 27.3374L27.675 36.3141C27.7706 36.3611 27.8547 36.4014 27.9129 36.4293C27.9877 36.4651 27.9958 36.4689 28.0217 36.4814C28.0823 36.5106 27.9149 36.4325 27.6851 36.303C27.4637 36.1783 26.9097 35.8553 26.2742 35.3134C25.6037 34.7416 24.7079 33.8131 23.997 32.446L32.8692 27.8325Z" fill="#DFE9F9" mask="url(#path-1-inside-1_13_129)"/>
</svg>
